<svg xmlns="http://www.w3.org/2000/svg" width="2500" height="2500" viewBox="0 0 192 120"><g fill-rule="evenodd" clip-rule="evenodd"><path fill="#fff" d="M0 0h192v122H0z"/><path d="M143.053 56.371c-.475-1.667-.475-3.811-1.189-5.478-.477-2.857-1.43-5.715-2.381-8.335-.477-.952-.953-2.143-1.668-3.096-.238-.714-.715-1.19-.953-1.905-.951-1.19-1.189-2.143-1.904-3.334-.953-.952-1.668-2.143-2.381-3.096-.953-1.19-1.906-2.144-2.857-3.334-.715-.238-.953-1.19-1.668-1.667-.477-.476-1.191-.714-1.43-1.19-.951-.953-1.904-1.905-2.857-2.62-1.666-1.428-3.572-1.667-5-3.096l-1.191-.714c-1.189-.715-2.619-1.191-3.811-1.667-.951-.715-1.904-.953-3.096-1.429-.715-.238-1.666-.714-2.381-.953-.238 0-.477-.238-.715 0-2.143 0-3.811-.953-5.715-1.19-1.668 0-3.572-.238-5.239-.477h-2.143c-1.429.238-2.858.238-4.287.477-1.905.238-4.048.476-5.953 1.19s-3.811 1.429-5.954 2.144c-.238.238-.714.476-1.191.476-1.19.476-2.143 1.191-3.334 1.429-1.429.952-2.857 1.19-3.81 2.381q-2.144.714-3.572 2.143c-1.429.477-2.62 1.667-3.81 2.62-1.19 1.429-2.62 2.381-3.811 3.572-.238.715-.952 1.191-1.19 1.905-.477.715-1.19 1.429-1.667 2.144-.714.714-1.19 1.429-1.667 2.381-.715 1.191-1.429 2.144-1.905 3.334-.238.953-.714 1.667-1.19 2.382-.477.952-.953 2.143-1.191 3.096-.476 1.19-.953 2.381-1.191 3.572 0 .238-.476.714-.238 1.19-.476.953-.476 1.905-.714 2.858 0 1.667-.477 2.857-.477 4.525 0 1.19-.238 2.619-.238 4.048 0 2.144 0 4.287.238 6.43.238.953.238 1.905.477 2.857.714 2.381 1.19 5.001 2.143 7.382.476 1.667 1.191 3.334 1.905 5.001.476.715 1.19 1.667 1.429 2.62.714.953 1.191 2.144 2.143 3.096 0 .476.477.476.715.953.476.477.714 1.191 1.19 1.905.477.477.953 1.19 1.667 1.905.238.477.714.714.953 1.19.714.477 1.191.953 1.667 1.429.953.476 1.429 1.428 2.381 2.143 2.144 1.668 4.287 3.334 6.668 4.525 1.191.477 2.144 1.191 3.096 1.666 1.429.715 2.858 1.191 4.287 1.906 1.429 0 2.381.715 3.81.715.477 0 .715.238 1.429.238 1.667.475 3.334.951 5.001 1.189 2.858.238 5.715.715 8.573.238 3.81 0 7.382-.715 10.716-1.666l5.002-1.43c1.904-.953 3.811-1.666 5.715-2.619.477-.238.953-.715 1.43-.715 1.428-.715 2.619-1.904 3.809-2.857 1.906-.953 3.811-2.619 5.479-4.049 1.428-1.667 3.096-3.333 4.049-5.239 1.428-1.667 2.857-3.572 3.809-5.478 0 0 .238-.238.238-.476 0-.476.477-.953.477-1.429.477-1.429 1.43-2.619 1.906-4.048.475-.953.713-1.667.713-2.62.715-1.429 1.191-3.096 1.43-4.524.477-2.857 1.191-5.715 1.428-8.812.472-1.664-.004-3.807-.004-5.712m-1.428 7.62c-.477 2.62-.953 5.001-1.668 7.383-.236 1.905-.951 3.334-1.428 5.239-.477.953-.715 2.143-1.43 3.096-.715 1.429-1.666 2.858-2.381 4.525a64 64 0 0 1-3.334 5.239c-.715.952-1.43 1.905-2.143 2.619-.953.953-1.668 2.144-2.857 2.858-1.43.953-2.859 1.904-4.287 3.096l-1.906 1.191c-.713.238-1.428.953-2.143 1.428-.715.477-1.43.715-1.904.953-1.906.953-3.811 1.904-5.955 2.619-1.666.715-3.334.715-5 1.43-2.143.477-4.049.715-6.191.953-2.144 0-4.287.475-6.43 0-1.19-.238-2.62-.238-4.049-.238-.476 0-.952-.238-1.429-.238-1.429-.477-2.857-.953-4.286-.953l-5.001-1.43c-.238-.238-.715-.238-1.191-.475-1.667-.953-3.572-1.668-5.001-2.621l-.476-.238c-1.191-.951-2.62-1.904-3.811-2.619-1.667-1.19-3.096-2.143-4.524-3.572-.953-.714-1.667-1.905-2.62-2.62-.714-.714-1.191-1.429-1.905-1.905-1.191-1.429-1.667-2.858-2.858-4.287-.952-1.19-1.429-2.619-2.143-4.048-.476-.952-.953-1.905-1.429-3.095-.476-1.667-.953-3.334-1.667-5.001-.238-1.19-.714-2.381-.714-3.572-.238-1.667-.715-3.572-.477-5.478-.238-.952-.238-2.144-.238-3.334 0-.238.238-.714.238-1.19-.238-.953.238-1.667 0-2.62 0-1.429.477-2.858.477-4.287.238-.953.238-2.144.476-3.096.238-.477.238-1.191.714-1.667 0-1.191.477-1.905.715-3.096a21.7 21.7 0 0 1 1.667-3.334c.715-1.191 1.191-2.382 1.667-3.572.952-1.429 1.429-2.858 2.619-4.048.715-.953 1.667-2.143 2.381-3.096.477-.952 1.429-1.429 2.144-2.143 1.429-1.429 2.858-2.62 4.524-3.572 1.191-.715 2.143-1.429 3.096-2.144.238-.238.714-.238.952-.477 1.667-.952 3.334-2.143 5.239-3.096 2.382-1.19 5.001-1.905 7.621-2.857q1.43 0 2.857-.715c.715 0 1.429-.238 2.144-.476.953-.238 1.667-.238 2.62-.476 1.667-.238 3.334.238 5.239.238.714 0 1.19-.238 1.905-.238h1.43c1.428 0 2.619.238 3.809.476.715.238 1.43.238 1.906.476.953 0 1.666.477 2.381.715.953.238 1.906.238 2.619.476 2.145.953 4.287 1.667 6.193 2.62 1.666 1.191 3.334 1.667 4.762 2.857 1.191.715 2.381 1.667 3.572 2.62.477.238.953.952 1.43 1.429.713.714 1.666 1.429 2.381 2.143.715.476 1.191 1.191 1.904 1.905.477.715.953 1.429 1.668 2.144 1.189 1.667 2.381 3.334 3.334 5.239.951.952 1.666 2.381 2.143 3.572.715 1.905 1.668 3.81 2.145 5.715.475 1.667 1.189 3.333 1.428 5 .238 1.429.477 2.858.477 4.525.238 1.191.238 2.381.238 3.81-.001.953-.001 2.383-.239 3.335" fill="#a5333a"/><path d="M139.721 57.799c0-1.19 0-2.382-.238-3.334-.477-3.811-1.191-7.382-2.621-10.716-.238-.714-.477-1.429-.951-2.143-.238-.715-.715-1.429-1.191-1.905v-.238c-1.904-2.381-2.857-5.239-5-7.382-2.383-2.381-4.525-5.001-7.383-6.668-1.668-1.667-3.572-2.858-5.479-4.048-1.189-.476-2.143-.953-3.096-1.667-.951-.477-2.143-.714-3.096-1.19-1.904-.715-4.047-.715-5.953-1.429-1.191-.238-2.381-.238-3.811-.476h-5.715c-1.429-.238-3.096-.238-4.286.238-.953 0-1.905.238-2.62.238-1.429 0-2.62.714-4.048.714-.477.238-.953.477-1.429.477-1.191.714-2.382.714-3.572 1.19-.953 0-1.667.714-2.62.953-.476.714-1.429.477-2.143 1.191-2.382 1.19-4.525 3.096-7.145 4.048-1.905 1.667-4.286 3.096-5.715 5.239-.953.715-1.429 1.667-2.143 2.382-.715.714-.715 1.667-1.429 2.381-.477 1.191-1.429 2.144-1.667 3.334-.477.477-.477.953-.953 1.429-.238.714-.714 1.667-1.19 2.62-.238.714-.715 1.19-.715 1.905-.476.952-.952 1.905-1.19 3.096-.476.714-.476 1.429-.714 2.143-.477 2.143-1.191 4.048-1.191 6.43-.476 1.667-.238 3.333-.238 5.239-.238.477 0 .953 0 1.667.238.953.238 1.905.238 3.096l.238.238c.238.714.238 1.667.477 2.62.238 1.667.714 3.334 1.19 4.763.953 1.905 1.429 3.811 2.144 5.477.476 1.191.952 2.144 1.667 3.096.714 1.905 2.144 3.572 3.096 5.477 1.429 1.667 3.096 3.334 4.524 4.763 2.144 2.382 4.763 4.048 7.145 5.478 2.143 1.43 4.286 2.143 6.668 3.334 1.429.477 2.62.953 4.048 1.43 1.191.236 2.143.951 3.572.951.952 0 1.667.477 2.62.477 3.334.477 6.668.715 10.001.238 1.668-.238 3.334-.238 5.002-.477a42.6 42.6 0 0 0 8.334-2.143c1.43-.953 3.096-1.43 4.525-2.143 2.619-1.191 5-2.383 7.383-4.288 1.189-.715 2.143-1.905 3.334-2.858 1.428-1.667 2.857-3.096 4.285-4.763 0-.238.238-.714.477-.953 1.191-1.429 1.906-2.857 3.096-4.048.238-.953 1.191-1.905 1.43-2.857s.713-1.667 1.189-2.62c.477-1.191.715-2.62 1.191-4.048.477-1.905 1.191-3.811 1.191-5.954.238-1.905.713-3.811.477-5.716 0-1.43.236-2.859 0-4.288m-1.668 9.05v1.191c-.238 1.19-.477 2.381-.953 3.572-.715 2.619-1.428 5.477-2.619 8.096l-2.143 3.572c-1.191 1.667-2.383 3.334-3.334 5.001-.477.477-1.191.953-1.668 1.429-.715 1.429-2.143 2.381-3.334 3.333-1.189 1.429-2.857 2.143-4.285 3.334-1.668 1.429-3.572 1.905-5.479 3.097-.715.477-1.666.715-2.619 1.428-.715 0-1.191.477-2.143.715-1.906.715-4.049.953-6.193 1.191-1.189.238-2.381.713-3.57.713-1.191.238-2.145.238-3.097.238-.953 0-1.667.238-2.62 0-.714-.238-1.667 0-2.619 0-1.905 0-3.811 0-5.478-.713-1.19-.238-2.62-.715-4.049-.953-1.667-.715-3.333-1.191-5-1.904-2.144-.953-4.287-1.906-6.192-3.573-1.19-.953-2.381-1.429-3.572-2.381-1.429-1.191-3.096-2.381-4.048-4.048-.715-.476-1.191-1.191-1.667-1.905 0-.238-.477-.238-.477-.714-.953-1.429-1.905-2.62-2.619-4.048-.477-.238-.477-.953-.715-1.191-.953-1.667-1.905-3.334-2.62-5.239-.476-.952-.714-2.143-1.19-3.096a62 62 0 0 1-.715-3.096c0-.477-.238-.714-.476-1.19-.476-1.905-.476-3.811-.714-5.954-.238-.952-.476-1.667-.476-2.619 0-1.191 0-2.62.238-3.811 0-1.667.714-3.096.952-5.001.476-1.667.714-3.572 1.667-5.239 0-.477.477-.953.477-1.667.952-1.667 1.19-3.334 2.143-5.001.714-1.429 1.905-2.858 2.381-4.287.476-1.19 1.429-2.143 2.144-3.334.714-.714 1.429-1.667 2.381-2.144l1.429-1.429c1.667-.952 2.857-2.619 4.525-3.572.952-.238 1.429-.953 2.143-1.191 1.19-.952 2.381-1.429 3.572-1.905 1.667-.714 3.096-1.905 5.001-2.143 1.429-.476 2.858-.714 4.049-.953l2.857-.714c1.19 0 2.381-.238 3.572-.476 1.905-.238 3.81-.238 5.715-.477 1.19.238 2.62.238 3.81.238l2.383.477c.713-.238 1.428 0 2.143.238 2.381.238 4.525.714 6.43 1.667 1.191.714 2.381 1.191 3.572 1.905 2.381.715 4.525 2.382 6.668 4.049.953.953 1.904 1.667 2.857 2.619l5.24 5.239c.475.953 1.189 1.905 1.666 2.62.953 1.429 2.143 2.858 2.857 4.287 1.43 2.62 2.143 5.477 2.857 8.335 1.43 3.572 1.43 7.858 1.43 11.907-.237 1.667-.237 3.572-.475 5.477" fill="#a5333a"/><path d="M80.661 21.125c0 .714 0 1.429-.238 2.144-.238.238-.476.476-.714.476 0-.238-.238 0-.238-.238s-.238-.477-.715-.715c-.238 0-.714 0-.952.238-.238.477 0 .714 0 .952.952.953 2.143 0 3.334-.238.238.238.714.476.953.714.714.715.952 1.429.714 2.381-.477.953-1.429 2.143-2.62 1.905-.238.238-.714-.238-.953 0 0 .238 0 .476-.238.714-.238 0-.476 0-.714-.238s.238-.714 0-1.19c0-.477-.476-.953.238-1.429.476 0 .953.476 1.667.952.476 0 .953-.238 1.19-.714v-.714c-.238-.238-.476-.476-.714-.476-.714.238-1.19.714-1.905.714-.714 0-1.429-.238-1.905-.953-.238-.714-.714-1.429-.476-2.143.238-.477.952-1.191 1.429-1.429.476-.238.952 0 1.429 0 .713.002.713-1.189 1.428-.713m35.245 2.62c.238.238.238.714.713.953.238 0 .477-.238.715.238-.238.476-.951.714-1.189.952l-.953.715s-.238 0-.238-.238c-.238-.477.477-.953.238-1.429-.238-.238-.477-.715-.715-.715s-.477 0-.715.238c-.475.953.477 1.429.715 2.144.238.238.477.714.715 1.19 0 .714-.238 1.429-.715 1.905-.715.476-1.666.714-2.619.476-.477-.238-.953-.476-1.43-.953l-.477-.714c-.236-.238-.713 0-.951-.238 0-.238 0-.477.238-.715l1.189-1.429h.477c.238 0 .238.238.238.477 0 .476-.477.714-.477 1.19 0 .477.715.953.953 1.19h.953c.477-.238.715-.714.477-.952 0-.714-.953-1.191-1.191-1.905 0-.714-.238-1.429.238-1.905.715-.952 1.666-1.19 2.857-1.19.239.239.716.477.954.715M71.85 25.888c0 .715-.476 1.191 0 1.667.476.953 1.429 1.667 1.667 2.62.476.238.476.714.953.953.476.238 1.19-.477 1.19.238 0 .477-.714.477-.953.714-.476.476-1.19.953-1.429 1.429 0 .238-.238.238-.476.238-.238-.714.238-1.429 0-1.905-.238-.477-.715-.715-.715-1.191a13.7 13.7 0 0 0-2.619-2.619c-.238 0-.715.238-.953 0 0-.238.238-.477.477-.714.715-.477 1.429-.953 2.144-1.667.238-.001.475-.001.714.237m46.675 2.144c.477.238.477.714.477 1.429 0 .477-.715.953-1.191.953s-1.191 0-1.428-.476c-.238-.477 0-1.191.236-1.429q.358-.714.715-.714c.477-.002.953-.002 1.191.237m-52.629 3.572v.714c-.238 0-.477.238-.714.238-.238-.238-.238-.476-.476-.238s-.238.476-.238.476c.238.238.476.238.714.238.953 0 1.429-1.19 2.381-.953.476 0 .952.476 1.19.476.477.715 1.429.953 1.429 1.905 0 .477.238.953 0 1.429-.476.477-.953 1.429-1.905 1.667 0 0-.238-.238-.476 0s0 .715-.477.715c-.476.238-.714-.477-.953-.953-.238-.238-.238-.714-.476-1.19 0-.238.238-.238.238-.238.953 0 1.905.953 2.619 0 .238-.238.238-.476.238-.714-.238-.476-.477-.953-.953-.953-1.19 0-1.905.715-2.857.953-.714 0-1.429-.476-1.905-.953a3.3 3.3 0 0 1 0-2.143c.238-.476.953-.476.953-1.191.238 0 .238-.476.477-.238.714 0 .714.715 1.191.953m33.102.952c0 .477 0 .953-.238 1.667h-.238c-.715 0-.477-1.19-1.43-1.19-.714.953-.476 2.381-.476 3.572.238.238.238.714.714.952 0 .238 0 .238-.238.477-.476 0-.714-.238-1.19-.238-.477 0-1.191 0-1.667-.238v-.238c1.19-.714.952-2.143.952-3.333 0-.238 0-.477-.238-.477-.476-.238-.714.238-1.191.238 0 .238-.238.238-.476 0s0-.476 0-.953c0-.238 0-.476.238-.476 1.19-.238 2.62 0 3.81-.238.477.237 1.43-.001 1.668.475m5.953 1.191c.238.238.477.238.715.476 0 .715-.953.238-1.191.715-.238 1.19-1.428 2.381-.477 3.81 0 0 0 .238-.238.238-.477 0-.951-.238-1.189-.476-.477-.238-.953-.238-1.191-.476 0-.477.477-.477.953-.715.715-.238.715-1.19.951-1.667 0-.476.238-.952.238-1.429-.238-.238-.713-.476-.475-.714.236-.476.713-.238.951-.238.238.476.715.238.953.476m21.195-1.667c-.238-.238-.477-.238-.715-.238-1.668.476-3.334 1.429-5.002 1.905-.475 0-.951.238-1.428 0-.238 0-.477-.238-.715 0v.476c.715.477 1.43 1.191 1.904 1.429.238-.238.238-.476.477-.714.953 0 1.43.714 1.906 1.429v.714c-.238.238-.477.238-.715.238 0 0-.238-.238-.477 0v.238c.477.238.953.715 1.191 1.191.238.238.477.714.713.714.238-.238.238-.714.238-.953 0-1.191.715-2.143.953-3.334.241-.952 1.432-1.904 1.67-3.095m-2.859 3.096c-.475 0-.951-.476-.951-.953.238-.238.715-.238.951-.476.477 0 .477.238.477.476 0 .477-.239.715-.477.953m-35.006.952c-.476-.477-.714-1.19-1.429-1.667l-.715-.714c-.238 0-.714-.238-.952 0-.714.476-.238 1.429 0 1.905l-.238 2.144c0 .477-.238 1.19-.476 1.905.238.238.952 0 1.19 0 .238-.238.714-.477.714-.715s-.238-.238-.238-.238c-.238 0-.238-.238-.238-.476s.476-.477.714-.715.714-.476.953-.238c.238 0 .238.477.238.477 0 .477-.477.953 0 .953.714-.238 1.19-.476 1.905-.714v-.238c-.475-.478-.951-.954-1.428-1.669m-1.428.239c-.238.238-.477.238-.715.238-.238-.477-.476-1.191-.238-1.667.714-.238.714.714.953.952.237.238.237.477 0 .477m-25.958-.239c0 .238-.238.477-.238.953.238.714.953 1.429 1.667 1.667 1.191.714 2.382 1.667 3.811 2.381v.477c-.477.476-1.429.238-2.382.238-1.19 0-2.619.238-3.572.476.238.477.714.953 1.191.953.476.476.952.714 1.667.714.238 0 .476-.476.714-.476.238.238.238.476.238.476-.714.953-.952 2.144-1.429 3.096-.238.238-.477.238-.477.238-.238-.477 0-.715 0-1.191 0-.714-.952-1.19-1.429-1.429-.953-.715-1.905-1.191-3.096-1.191-.477 0-.477.476-.953.476-.476-.238-.238-.714-.238-.952.476-.715.952-1.429 1.667-1.667 1.429-.477 2.619-.714 4.048-.477.238-.238.477 0 .715-.238-.477-.477-1.191-.953-1.667-1.191-.477-.238-.953-.477-1.429-.477-.238 0-.238.238-.714.238 0-.238-.238-.238-.238-.476s.238-.238.238-.476c.477-.953.477-1.905 1.191-2.382.239.002.477.002.715.24m50.962 2.144c0-.238 0-.953-.477-.953-.477.238-1.191.715-1.666 1.191-.715.714-1.43 1.191-2.383 1.667-.238.238-.477 0-.951.238l.238.238c.236 0 .475.238.713.476.477 0 .715.714 1.191.238 0-.238-.238-.477-.238-.477.953-.476 1.43.477 2.143.953 0 0 .238.238.238.476-.477 0-.715 0-.951-.238l-.238.238c0 .477.475.715.951.953 0 .238.477.476.953.714.238-.238.238-.238.238-.476-.238-.714-.238-1.905 0-2.62.238-.238 0-.476.238-.714-.237-.714.24-1.19.001-1.904m-1.191 1.905c-.238 0-.477 0-.715-.238-.236 0 0-.238 0-.476.238-.238.715-.477.953-.714 0 .475.239 1.189-.238 1.428m20.004-.953s.238 0 .477.238c.477.476 1.43.953 1.43 1.667-.238.714-.477 1.19-.953 1.429-.477 0-.953.238-1.43 0 0-.238-.238-.476 0-.714s.953 0 1.191-.476c0-.477-.238-.953-.715-.953-.477-.477-1.189-.238-1.904 0l-1.43.714c-.477.477-.715.953-.477 1.429 0 .238 0 .715.238.715.477.476 1.43.238 1.668.714 0 .477-.477.477-.715.715-.477 0-1.43 0-1.904-.238-.238-.714-1.191-1.19-.953-1.905-.238-1.667 1.428-2.857 2.619-3.572.954-.239 1.907-.239 2.858.237m-49.295.953c-.238-.238-.476 0-.714.238s-.238.476-.238.714-.238.477-.476.714c-.238 0-.714 0-.714-.238-.477-.715 0-1.667-.477-2.144-.476-.238-.952-.714-1.429-.714-.714 0-1.429.238-1.667.953-.477.714-1.19.714-1.905 1.19 0 .238.238.477.238.477.477 0 .953.238 1.19.476.477.714.953 1.429 1.429 1.905s0 1.191.476 1.667h.477l1.429-1.191c.238-.476 0-.476-.238-.714s-.476 0-.714-.238c.952-.477 1.905-.238 2.619-.477a2.86 2.86 0 0 0 1.19-1.19c0-.476 0-1.19-.476-1.428m-4.048 1.429c-.476 0-.714-.715-1.19-.953l.476-.477c.476 0 .714.238.953.477-.001.238-.001.476-.239.953m41.198 2.381c.715.477.953 1.191 1.191 1.905.238.238.475.714.238.953-.238.238-.715.238-.953.238s0-.238 0-.238c-.238-.714-.238-1.429-.953-1.429 0 .238-.953.238-.715.953.238.238.477.238.477.476 0 .477-.238.477-.477.714h-.238c-.238-.476-.713-.714-.713-.953 0-.238-.238-.238-.238-.238-.238.476-.715.476-.477.953.238.476.238.953.715 1.19h.713c.238 0 .715-.238.953.238 0 .238-.238.238-.477.477-.477 0-1.189.477-1.666.238-.715-.715-.715-1.429-1.191-1.905v-.238c-.477-.477-.953-.715-1.428-.953v-.477c.236-.476.713 0 1.189-.238.715-.238 1.668-.714 2.381-1.19.238 0 .477-.477.715-.714 0-.238-.238-.476 0-.714 0-.238.238-.238.238-.238.478.476.478.952.716 1.19m-33.102.715s.238 0 .238.238-.238.238-.476.238-.953.238-1.429 0c0-.238-.238-.476 0-.476.477-.477 1.191 0 1.667 0m-13.812 1.19c.238.714-.238.953-.714 1.191-.238.476-.238 1.191 0 1.667.238.477.477.953 1.19 1.191l.953-.238c.238-.238.477-.477.477-.715-.477-.238-.953 0-1.191-.476 0-.476.238-.953.477-1.19.476 0 1.19 0 1.667.238 0 .238.476.238.476.477v.238c-.238.714-.238 1.429-.476 2.143-.477.476-1.191.476-1.667.953-.477.238-.953 0-1.429 0-.477-.715-1.667-.953-1.667-1.905-.715-1.19-.238-2.62.476-3.572.476-.24 1.191-.478 1.428-.002m24.053.953c.238.477-.238.953-.477 1.429h-.238c-.238-.238-.238-.715-.238-1.191-.238-.238-.476-.714-.476-.953l.238-.238c.714 0 .952.477 1.191.953m-2.62-.715c.477.238.477.714.477 1.191-.238 0-.477.238-.715 0s-.238-.715-.714-.715c0 0-.238 0-.476-.238v-.238c.476-.238.953-.238 1.429-.238v.238zm4.524.239c.238.238.238.714.238.953 0 .238-.238.714-.477.714s0-.477-.476-.714c-.238 0-.238.476-.714.238v-.714q0-.357.714-.714c.239-.002.477.237.715.237m-5.477.714c0 .238-.238.238-.238.476-.238.238-.238.953-.714.715-.477-.477.238-.953.238-1.429.238 0 .714-.239.714.238m-5.715.476c.238 0 .238.238.238.238-.238.238-.477.238-.714.238-.477.238-1.19 0-1.667.238-1.191-.238-2.382 0-3.572 0-.238 0-.238 0-.476-.238 0 0 0-.238.238-.238.953-.238 1.905-.238 2.858-.238h1.429c.476 0 1.19-.238 1.666 0m-30.482.953c.238.476.953.238.953.953-.238.238-.714 0-.953.238-.477.238-1.19.476-1.19 1.19 0 .238.238.477.476.477.238.238.953.476 1.191 0 0-.238-.477-.477-.238-.715 0-.238.238-.238.238-.476.238 0 .476.238.952.238.238 0 .953-.238 1.191.238 0 .477-.714.715-1.191 1.191h.238c.715 0 1.429.238 2.143.476v-1.667c.238-.714-.953-1.19-.714-1.905 0-.238.238-.238.477-.238.714.238 1.19.953 1.429 1.429.714.714.238 1.429-.238 2.143-.238.953 0 2.143-.476 2.857v.714c-.238.238-.477.238-.477.238-.714-.477-.714-1.429-1.667-1.667-.953-.476-2.144-.714-3.334-.953-.715-.238-.715.953-1.429.714-.476-.714-.238-1.667-.238-2.381.238-1.191.715-1.905.953-3.096.238 0 .477 0 .477-.238.474.002.95.24 1.427.24m32.864 0c.238.238.238.238 0 .238-.477.477-1.191.238-1.667.477-.953 0-1.905.238-2.857.238-.238 0-.238-.238-.238-.477.238-.238.715 0 1.191-.238 1.189-.238 2.38-.238 3.571-.238m.476.952-.238.238c-.714.476-1.667 1.19-2.858 1.429-.238 0-.476-.238-.476-.477v-.238c1.191-.238 2.144-.714 3.096-1.191 0 .001.238.001.476.239m47.151.239c-.236-.238-.475-.477-.713-.477-.477.238-1.191 0-1.906 0-.238-.238-.477 0-.713 0-.953-.477-2.145-.238-3.098-.714l-.951-.953v-.238q-.357-.357-.715 0c0 .238-.477.714 0 1.19s.477 1.191.715 1.667c0 .238.238.238.477.238s.238-.238.238-.476l.236-.238c.477 0 .715.238.953.476s0 .953 0 1.429c0 .238.238.476.238.952-.238.238-.238.238-.477.238-.477 0-.477-.477-.951-.477-.238 0-.238.238-.238.477.238.476.238.953.475 1.19 0 .477-.236.953 0 1.429 0 .238.238.477.477.477.715-.714.953-1.429 1.43-2.143s1.428-1.191 2.143-1.905c.477-.238.953-.953 1.43-1.191.238-.238.477-.238.715-.476.235.001.235-.237.235-.475m-4.047 1.667c-.238 0-.238-.238-.238-.238l-.238-.953c.477-.476.953-.238 1.428 0-.001.476-.476.952-.952 1.191m-28.102 7.144c.238.238-.238.476 0 .953 0 .238 0 .476-.238.714-.477 0-.715-.714-1.428-.476v.238c-.238.953-.477 1.905-.477 2.858 0 .477.477.477.477.714s0 .476-.238.476-.477 0-.715-.238c-.477.238-.953.477-1.43.238-.236 0-.236-.238-.236-.476.236-.238.713-.476.713-.953 0-.953.238-1.905 0-2.857-.238-.238-.477 0-.713 0-.238 0-.238.714-.715.714l-.238-.238v-1.667h4.523c.239 0 .477-.238.715 0m14.051.476v1.191c-.238.238-.477 0-.715 0s0-.238-.238-.238c0-.476-.238-.476-.715-.476 0 0-.236 0-.236.238 0 1.19 1.428.714 1.666 1.667.477.714.238 1.667-.238 2.143s-1.666.476-2.619.238c-.238 0-.715.477-1.191 0v-.476c.238-.477.715-.715.953-1.191h.238c.238.715.715 1.429 1.428 1.191.238 0 .715 0 .715-.238.238-.238 0-.477 0-.714-.477-.715-1.666-.715-2.143-1.429 0-.714 0-1.429.477-1.905.715-.476 1.666-.714 2.381-.238zm-36.674-.238v1.429c0 .238-.476.238-.476 0-.477 0-.238-.476-.715-.476-.238 0-.476 0-.714.238-.238 0-.238.238-.238.477 0 .238.238 0 .476 0 .476.476.714.714.476 1.19 0 .476-.476.715-.952.715-.238.238 0 .714.238.953.953.238 1.429-.715 2.143-.953.239 0 .239 0 .239.238 0 .477 0 .953-.477 1.19-1.191.477-2.62.238-4.048.238-.238 0-.238-.238-.238-.476.953-.953.477-2.381.477-3.572v-.953l.238-.238zm14.289.238v.477c-.238 0-.477.238-.715.476.238.953-.238 1.667-.238 2.62.238.238.714.238.714.477.238.476 0 .714-.238.714-.476.238-1.19.238-1.667.238-.238.238-.714.238-.953 0-.238-.238-.238-.476-.238-.714.238-.477.714-.238.953-.477.238-.953.238-1.905.238-2.858 0-.238-.476-.238-.714-.476s-.238-.477-.238-.477c.953-.238 1.905-.476 2.858-.238.238 0 .238.238.238.238m-23.815 0c0 .238 0 .477-.238.477l-.238.238c0 .714.238 1.19.476 1.667.238.238.477 0 .715-.238l1.19-2.144c.477-.476 1.19-.238 1.429-.238.238.238.238.238.238.476-1.19 1.429-2.381 3.096-3.334 4.524-.238 0-.476 0-.476-.238v-.476l-1.429-3.096c-.238-.238-.476-.238-.476-.238-.238-.238-.238-.477-.238-.715.238-.238.476-.238.952-.238.477.001 1.192-.237 1.429.239m-18.813.476c1.191.476 2.381.238 3.572.238.714 0 1.429.238 1.905-.477 0 0 0-.238.238-.238s.477-.238.714 0v.238c0 .953-.238 1.905 0 2.857 0 .239 0 .477-.238.715-.477 0-.715-.953-1.429-.953-.953-.238-2.382-.238-3.572-.238-.714 0-1.191.476-1.667.953h-.477v-.477c0-.714-.476-1.667-.238-2.381 0-.477 0-.715.476-.953.478.002.478.716.716.716m84.302-1.905c-.477-.714-.477.238-.715.477-.713.238-1.428.238-1.904.238-1.191-.477-2.143.238-3.334 0-.238 0-.477 0-.715-.238 0-.238-.238-.477-.477-.477s-.238 0-.238.238c.238.714.238 1.667.238 2.62 0 .714.715.953.715 1.429.238.477.477.714.953.953.477.477 1.428.477 2.143.477.715-.238 1.43-.477 2.143-.953l.715-.953s0-.477.238-.715c0-.476.477-.952.238-1.667 0-.476.238-.952 0-1.429m-1.428 3.334c-.715.953-2.383.714-3.572.714-.477-.238-.953-.476-.953-.953-.238-.238-.238-.476 0-.476.477-.476 1.191-.476 1.904-.238.477 0 1.191.238 1.668 0 .238 0 .715 0 .953.238 0 .239.237.477 0 .715m-45.485 1.19c-.477 0-.477.715-.714.953-.476-.238-1.19-.238-1.429-.714 0-.715.715-1.191.477-1.905 0-.714-.238-1.429-.953-1.667-.714-.238-1.667 0-2.381-.238-.476.238-.714.238-.952.476 0 .238 0 .477.238.715.238.952 0 2.143 0 3.096 0 .477-.476.714-.238.952.238.477.714 0 1.19.238h.476c.238-.238.238-.714.238-.952 0-.477.476-.238.714-.238.714.238 1.19.952 1.905 1.19.476 0 .952.238 1.429-.238.238-.476.715-.952.477-1.428-.001-.24-.239-.477-.477-.24m-3.334-1.19c0 .477-.476.477-.714.477-.238-.238 0-.477-.238-.715v-.476c.477-.238.953-.238 1.191 0-.001.238-.001.714-.239.714m24.528 2.382c-.715-1.429-1.668-2.62-2.143-4.049 0-.238-.238-.476-.477-.476s-.477 0-.477.238c-.238 1.667-1.191 2.858-2.143 4.287l-.715.714v.238h2.143s.238 0 .238-.238-.238-.238-.238-.238c-.238 0 0-.238 0-.238.238-.476.715-.714 1.43-.476.238 0 .951 0 .951.476 0 .238-.238 0-.477 0 0 .238-.236.238-.236.476s.236.477.475.477c.715-.238 1.43-.238 2.145-.477.001-.239-.237-.476-.476-.714m-2.142-1.905c-.238.238-.477.238-.715.238s-.238-.476-.238-.714.238-.476.477-.476.477 0 .477.238zm-50.487 4.524c.238 0 .714 0 .714.238 0 .476.238.953.238 1.429.238.953.238 2.144.714 2.857.238.238.477.715.477.953-.238.238-.238.476-.477.476-.953 0-1.667-.238-2.619-.238-.953.476-1.667.714-2.858.714 0 0-.238 0-.238.238s0 .476-.238.714c-.476 0-.476-.476-.714-.714-.476-.952-1.191-1.667-.953-2.62.238-.238.238-.238.477-.238.476 0 .714.714 1.429.476h1.667c.714-.476 1.667-.238 2.381-.953 0-1.429-1.19-2.143-2.144-3.096 0-.477.477-.238.477-.477.715.003 1.19.241 1.667.241m71.68 1.429c1.191.715 2.619.715 3.811.953.477 0 1.191.476 1.43 0 .236-.238.236-.476.475-.714.238 0 .477.238.715.477-.238.476-.477 1.19-.715 1.667-.238.952-.713 1.905-.713 2.857 0 .238-.238.476-.477.476-.477 0-1.191 0-1.668-.238-.238 0-.477-.238-.238-.477.477-.714 1.43-.714 1.906-1.429-.238-.714-.953-.714-1.43-.953-.238.476.477.953-.238 1.191-.477 0-.951-.477-1.428-.477-.238 0-.238 0-.477-.238 0-.238 0-.476.238-.714.238 0 .238 0 .238-.238s0-.477-.238-.477c-.715-.238-1.43 0-1.668.477-.238.714-.477 1.667.238 2.381 0 0 0 .238-.238.238h-.238l-1.428-.953c-.238-.238 0-.715 0-.953.238-.953.477-1.905.953-2.62 0-.476.236-.953.475-1.19.715.002.239.716.715.954M75.183 73.04v.238c-.476.953-.714 1.667-.714 2.858h.238c.714-.238.953-.715 1.667-.953l.714.714c.238.477.715.714.477 1.19-.477.238-.477-.238-.953-.238-.714.238-1.429.714-2.143 1.191-.238.476-.953.714-1.429.952 0 0-.476 0-.476-.238 0-1.19.714-2.143.476-3.334 0-.238-.238-.238-.476-.238-.477.476-1.19 1.191-1.429 1.905-.238 0-.238 0-.477-.238-.238-.238-.238-.714-.476-.953 0-.238-.238-.477-.238-.714.714 0 1.429-.476 2.143-.714.477-.477 1.191-.477 1.667-1.191 0 0 .238-.238.238-.476.238-.238-.238-.238 0-.477h.477zm42.151.238c0 .238.238.477 0 .477-.477.238-1.189.238-1.666.714-.238.238-.477.238-.715.714.238.238.715.476 1.191.476.475-.238-.238-.952.475-.952.477 0 .953.476 1.191.952v.238c-.238.238-.715 0-.715.238s-.238.476 0 .714.477.238.715.238c.477-.238.477-.476.715-.714.238-.715-.238-.953-.477-1.429 0 0 0-.238.238-.476.715.238 1.191.952 1.904 1.19 0 .238-.236.238-.236.477-.953 1.19-1.668 2.381-2.859 3.572h-.477c-.236-.238 0-.476 0-.953-.236-.714-.951-1.667-1.904-2.143-.477-.238-.953.238-1.191.476q-.355.357-.713 0c-.238 0-.238-.238-.238-.476.238-.476.951-.714 1.189-1.191.477-.952 1.191-1.667 1.906-2.619.478-.237.952.477 1.667.477m10.717 1.43v.476c.715.953 1.668 1.667 2.619 1.905.715.715 1.668.953 2.383 1.429.236.238.475.476.475.714-.951.953-2.381.476-3.334.476h-.475c-.238.239 0 .477 0 .477.475.953.713 1.905 1.189 2.62 0 .238-.238.238-.238.476-.715 0-1.428-.476-2.143-.953-.477 0-.715-.476-.953-.476-.953-.238-1.428-.953-2.381-.953-.477.238-.715.238-.953 0 0-.714.238-1.191.715-1.667.238-.238 0-.952.477-.714.715.238.477.953.953.953.475.238 1.189.238 1.666.714 0 0 .238 0 .238-.238.238-.715-.238-1.191-.238-1.905 0-.238.238-.238.477-.238.238-.238.477 0 .477-.238s-.477-.238-.477-.477c-.715 0-1.43-.476-1.668.238-.238 0-.475 0-.713-.238.238-.238.238-.476.475-.714.238-.477.238-1.429.953-1.905.237-.001.237.238.476.238m-62.393 5.953c-.238-.714-.238-1.667-1.19-2.143-.477.476 0 1.19-.477 1.429q-.357.357-.714 0c-.714-.239-.238-.953-.953-1.191-.238-.476-.714-.714-.238-1.19.238-.238.238-.714.715-.714.238 0 .238.238.238.476 0 0 .238.477.476.238 0 0 .238 0 .238-.238 0-.714-.714-1.19-.952-1.905-.238-.476-.238-1.19-.715-1.19-.476 0-.238.714-.238.953-.476.714-.953 1.429-1.667 1.905-.477.715-.953 1.429-1.667 2.144l-.476.953q-.357.357 0 .714c1.667.476 3.334.238 5.239.238.714 0 1.429-.238 2.143.238 0 .238.238.477.477.477 0 .238.238.238.476 0-.001-.48-.477-.718-.715-1.194m-4.049-.476c-.476-.238-.953 0-1.429 0-.238-.238-.238-.238-.238-.477.477-.238.953-1.19 1.429-.476.238.238.238.476.476.715zm19.528-.477c0-.238-.238-.476-.477-.238-.953.238-1.905.953-2.857 1.429-.477 0-.953.476-1.429.476-.477.238-.953 0-1.191 0s-.238 0-.238.238c.714.476 1.191 1.191 1.667 1.905.476-.238.238-.714.476-.953.477-.238.715 0 .953 0 .476.477 1.19.953 1.19 1.667h-.238c0 .238-.476.477-.238.714l.953.238c.238.238.477.953 1.191.953v-.477c-.953-1.904.476-3.808.238-5.952m-1.429 2.62c-.238 0-.476-.476-.714-.714 0 0-.238-.238 0-.238.238-.238.714-.714 1.191-.714v.238c0 .475-.239.713-.477 1.428m35.483-1.191c-1.43-.238-2.857-.714-4.287-1.19-.477 0-.715-.477-1.189 0-.238.476.236.952.236 1.667.238.953.238 1.905 0 3.096 0 .238-.475.714-.236.952.475.238.475-.238.713-.238.477-.476 1.191-.714 1.43-1.19 0-.238-.477 0-.477-.238-.238-.476.238-.714.477-1.19.477 0 .715-.477 1.191-.477.475.238 0 .477 0 .715s0 .238.238.238c.713-.476 1.189-1.191 1.904-1.667zm-4.287 1.191c-.238-.238-.238-.953-.238-1.19.238-.238.238-.238.477 0l.953.238v.238c-.239.475-.715.952-1.192.714m-25.481 0c1.429.477 2.62.953 4.049 1.429.238 0 .238.238.476.238 0 .477-.238.953-.476 1.191 0 .238-.238.238-.477 0-.238-.238-.238-1.191-.953-.953-.476 0-.714.714-.953 1.19-.238.477-.714 1.191-.714 1.667.238.476.714.714.953 1.19 0 0 0 .238-.238.238-.476 0-.714-.238-.953-.238-.714-.238-1.428-.238-2.143-.714v-.238c.238-.238.715-.238.953-.238.476-.715.714-1.667.953-2.62.238-.238.476-.477.476-.715-.238-.238-.476-.476-.953-.476-.238.238-.476.714-.952.953 0 0-.238 0-.238-.238 0-.714.238-1.19.477-1.667.237-.238.476.001.713.001m37.389 1.905c.238.714.951 1.19 1.428 1.667.953.715 1.668 1.429 2.857 1.429.238 0 .953 0 .953.238.238.714-.477.714-.715.952l-1.428 1.429c0 .238-.238.238-.238 0-.238-.238-.238-.476-.477-.953-.238-.238-.477-.953-.953-1.19-.715-.477-1.428-1.429-2.381-1.905-.477 0-.715.953-1.191.238 0-.715.715-1.191.953-1.905.238-.238.477-.714.953-.953.478 0 .001.715.239.953m-14.765 1.429c0-.238-.238-.238-.477-.238s-.477.477-.477.715-.475.238-.713.238-.715-.238-.715-.476c0-.714.477-1.667-.238-2.381-.477-1.191-1.906-.953-2.857-.476-.715.476-1.43.476-2.145.952 0 .238.238.238.238.477.238.238.715 0 .953 0 .238.238.477.714.715 1.19.238.477.477 1.191.715 1.905 0 .476-.477.952 0 1.191.236-.239.713-.239 1.189-.477s-.238-.476 0-.953l.238-.238c.238.238.715.238.953.476 1.191 0 2.381-.238 2.857-1.191.002-.238.002-.714-.236-.714m-3.572-.239c0 .238-.238.238-.477 0-.238 0-.238-.476-.477-.714 0-.238-.475-.477-.238-.715.715-.238 1.191 0 1.43.477.238.476 0 .715-.238.952m-9.526-.952c0 .238-.238.238-.238.476-.238 0-.476 0-.476.238-.238 1.19-.238 2.381.238 3.333.238.477.714.477 1.19.477.953-.477.714-1.905.953-2.857 0-.477.238-.953 0-1.191 0-.238-.238-.238-.238-.238 0-.238 0-.238.238-.238.476-.238.952.238 1.667 0l.238.238c.238.238 0 .476-.238.476s-.238.238-.477.238c-.477 1.429-.238 3.096-1.19 4.049-.714.476-1.667.714-2.381.238-1.667-.953-.714-3.096-1.191-4.525 0-.238-.476 0-.476-.476 0 0-.238-.238 0-.477.476-.238 1.19-.238 1.905 0 0 .001.238.001.476.239M70.42 86.138c0 .953.477 1.429 1.191 1.667.238.238 0 .476-.238.476s-.715 0-1.191.238c-.238.239-.714 0-1.191.239-.238 0-.477 0-.477-.239v-.238c.238-.238.715-.238.715-.714.238-.714-.238-1.191-.715-1.667-.476 0-.714-.238-.952 0-.476.238-.476.715-.238 1.191.238.714.477 1.19.714 1.905 0 .715-.238 1.667-.952 2.144-.477.238-.953.714-1.667.476-.476 0-.952-.476-1.19-.953-.477-.476-.953-1.19-1.19-1.667 0-.477.476-.477.714-.714l1.191-.238c.476.238-.476.476-.476.953s.238.953.714 1.191c.238.238.714 0 .953-.238.238 0 .238-.476.238-.714-.238-1.191-.953-2.143-.714-3.572.238-.238.477-.714.953-.952.953-.477 2.143 0 3.096.714zm50.01 8.097c-.238-1.429-.713-2.62-.951-4.048 0-.476-.238-1.191 0-1.667s.477-.714.477-1.19c0-.238-.238-.238-.477-.238-.238.476-.715.714-1.43.952-.238.476-.715.476-.953.953.238.238.477.238.715.238s.238.477.238.477c-.477.714-1.191 1.19-1.904 1.429 0 0-.238 0-.477-.238-.238-.477.238-.714.238-.953 0-.238-.238-.238-.238-.238-.715.476-1.43.714-1.906 1.429-.238.238-.475.238-.475.476s.236.476.236.476q.358.357.715 0c1.191.238 2.381.715 3.334 1.429.953.238 1.43 1.19 1.906 1.429.477.238.951.238 1.189 0 .239-.24.001-.478-.237-.716m-1.428-1.667c-.477 0-.477-.238-.953-.477l-.238-.238h.238c.238-.238.715-1.191.953-.476.238.476 0 .714.238.952z" fill="#a5333a"/><path d="M129.004 53.274c-.477-2.381-1.668-4.287-2.383-6.668-.713-.953-.951-1.905-1.666-3.096-.238-.476-.238-1.191-.715-1.905-.238-.477-.715-.953-1.189-1.667-.715-.476-.953-1.429-1.906-1.905-1.189-1.667-2.619-2.858-4.049-4.287-.713-.238-1.428-.953-2.143-1.429-.715-.238-1.43-.953-2.381-1.191-1.191-.714-2.383-1.429-3.572-1.905-.477-.238-.953-.476-1.191-.714-.953-.238-1.904-.953-2.857-1.19-.477 0-.953.238-1.43 0-.238-.714.238-1.429.477-2.143.477-.715 1.43-.238 2.145-.715.238-.238.238-.477.238-.952-.477-.477-.953-.953-1.906-.953-1.191.238-2.143.953-3.096 1.667-.477.477-.953-.238-1.666-.238-.238-.238-.715-.714-.715-1.19s.477-.714.953-.953c.713-.714 1.904-.476 2.619-.238.477 0 .713-.477.713-.714 0-.238 0-.715-.236-.953-.238-.238-.715-.477-1.191-.477-1.191-.238-2.857-.476-4.049.477-.477.238-.953.953-1.429.953-.714-.477-1.667-.715-2.381-1.191l-.953-.477c-1.19-.238-2.143.477-2.858 1.429 0 .476-.476 1.19 0 1.667.238.238.477.238.715.238.477 0 .714-.476.714-.714.238-.238.476 0 .714 0 .476 0 .714.476.953.714.238.477-.238.953-.714 1.429-.238.238-.714.238-1.19 0-1.191-.714-2.62-1.905-4.287-1.19-.714.238-1.667.953-1.667 1.905.238.714.953 0 1.429 0 .714 0 1.429 0 1.905.714.238.476 0 .953-.239 1.191-1.19.476-2.381.476-3.333.714-1.191.238-1.905.714-2.858 1.19-1.667.714-3.572 1.191-5.001 2.381-1.19.715-2.144 1.667-3.096 2.382-.953.952-2.144 1.429-3.096 2.619-.477.715-1.191 1.429-1.905 2.144-.477.714-1.191.952-1.429 1.667-.714.953-1.429 1.667-1.905 2.619-1.667 2.382-3.096 4.763-3.811 7.621-.476 1.429-.952 2.619-.952 4.048-.477.715-.477 1.429-.477 2.144-.238.953-.238 2.144-.238 3.334.238 1.667-.238 3.811.476 5.239.477 3.334 1.429 6.191 2.381 9.049.714 1.19.953 2.62 1.667 3.81 1.905 2.858 3.81 5.954 6.192 8.811.952 1.191 2.381 1.905 3.572 3.096 1.667 1.19 3.334 2.143 5.239 2.857.953.477 2.144.953 3.334 1.191 1.429.714 3.096.714 4.763 1.19.953.238 2.143 0 3.096.238.476.477.952.714 1.429 1.191v1.189c-.477 1.191-.477 2.383-1.429 3.572-.477.477-1.191.715-1.905.953-.953.477-2.144-.477-2.858.477 0 0 0 .238.238.477.714.238 1.905.238 2.858.238.476.238 1.429.238 1.905.238.714-.477 1.428-.477 1.905-.715.714-.238 1.191-.715 1.905-.715l2.143.953c1.43 0 2.857.238 4.287 0 .477 0 .953-.477 1.191-.953q.357-.358 0-.715c-.357-.357-.477 0-.953 0-.953-.238-2.143-.477-2.857-1.428-.715-.953-1.43-2.383-.953-3.811.238-.476.953-.476 1.668-.715 2.143-.476 4.523-.714 6.43-1.667 1.666-.477 3.096-1.191 4.762-1.905 1.43-.953 2.619-1.667 4.049-2.62 1.904-1.19 3.334-3.096 5.002-4.763.713-.714 1.189-1.667 1.904-2.381 1.191-1.429 2.143-3.096 2.857-4.525.715-.952 1.191-1.905 1.668-2.857.951-1.667 1.428-3.811 2.143-5.954.238-1.667.477-3.572.953-5.239.238-.953.238-2.144.238-3.096 0-2.377-.239-4.759-.715-6.902M99.475 25.65h.238c0-.238.238-.476.238-.476.475 0 .713.714 1.189.714s.715-.714 1.191-.952.951-.715 1.666-.953c-.951.715-1.666 1.429-1.666 2.382-.238 1.19 0 2.143.477 3.334.238 0 .475.238.713.238.238-.238.238-.238.477-.238-.238-.477-.238-.953-.477-1.429h.238c.477-.238.715.238 1.191.238v.238c0 .238-.477 0-.477.476 0 .238 0 .477-.238.715s-.238.238-.477.238c-.951 0-1.666-.714-2.143-1.429l-.477-1.667c-.238-.476-.715-.238-1.189-.238-.238-.238-.715-.238-.715-.476-.236-.239-.236-.715.241-.715m-.954 43.818c.715.714 1.666 1.19 1.666 2.144.238 1.19.477 2.857-.475 3.81-.477 1.191-1.191 2.62-2.621 3.096-.952.714-2.857.476-3.81-.238a2.87 2.87 0 0 1-1.191-1.191c-.952-1.429-1.429-3.81-.476-5.477.476-1.191 1.667-2.62 3.096-2.858 1.191 0 2.381.238 3.334.477l.238-.238c0-.714-.715-.952-1.191-1.19-.714-.238-1.667 0-2.619 0-1.191.238-2.382.714-3.334 1.429-1.905 1.429-2.62 3.572-2.858 5.715 0 1.191.477 2.143.953 3.096.714 1.19 1.905 1.429 3.096 2.143.714 0 1.667.476 2.381.714.238 0 .238.238.238.476-.238.714-1.191.238-1.667.238-1.191-.238-2.143-.238-3.096-.714-.952-.238-1.667-.476-2.381-1.191-.238 0-.238-.238-.238-.238.238-.715.476-1.429.952-1.905v-.714c-.238 0-.476-.238-.714-.238-.715.714-.715 1.667-1.429 2.381-.953.238-1.667-.476-2.381-.952-.477-.477-.477-1.191-.238-1.905.715-1.429 1.667-2.381 2.144-3.811.714-.952.953-2.381 1.905-3.334.476-.952.714-1.905 1.667-2.381.952-.476 2.143-.238 2.857.714.238 0 .476-.238.714-.238a1.52 1.52 0 0 1 1.429 0c.238.238.476.476.714.238.715 0 .953-.238 1.667-.476s1.667-.238 2.382.238c.477.238.477.953.477 1.429.238.238.238.476 0 .476-.477.238-.953-.238-1.191.238zm13.813 1.906c.238.714 1.189 1.19.477 2.143-.477 1.191-1.906 2.143-2.859 3.096-.236.238-.475.238-.713.238-.953-1.429-1.43-3.096-2.383-4.525-.236-.714-.475-1.429-.951-2.143-.238-.714-1.191-1.429-1.191-2.381 0-.238.238-.477.477-.714.953 0 1.666 0 2.619.238l.477.238c1.428 1.189 2.617 2.619 4.047 3.81m-2.383-4.525h.238c1.668-.238 3.334-.714 5.002-.238l.477.238.238.238c.238 1.667-.715 2.857-1.668 4.287-.715 0-.951-.477-1.428-.953-.715-.952-1.43-1.905-2.383-2.619-.238-.239-.476-.477-.476-.953m-3.57 7.144c.713 1.191 1.189 2.382 1.904 3.334.238.238.238.477 0 .477-.715.714-1.666 1.19-2.619 1.667-.953.238-1.668.477-2.383.477-.236 0-.475-.239-.475-.477-.477-2.62-.715-5.478-1.191-8.097 0-.953 0-2.144-.238-2.858v-1.429c.477-.238 1.191-.238 1.668.238.713.953.951 2.144 1.666 3.334.715.953.953 2.381 1.668 3.334m-5.002 2.858c.238 1.191.238 2.381.477 3.572 0 .238-.238.476-.477.476-.715.476-1.428.476-2.143.714-.953 0-1.668.238-2.382 0-.238-.476-.238-.714 0-1.19.714-.715 1.906-.715 2.621-1.429.713-.714.951-1.429 1.666-2.143 0-.476.238-.239.238 0m-14.765-8.335c-.714 1.429-1.191 2.858-2.143 4.287-.477.714-.477 1.429-.953 2.143-.476.476-.476 1.191-1.428 1.429-1.191-.477-2.144-1.429-2.858-2.382-.238-1.19.476-1.905.953-2.857.953-1.191 1.905-2.62 2.857-3.572 1.191-1.19 2.62-1.429 4.048-.953.238.238.238.477.238.477-.238.475-.714.952-.714 1.428m-5.715-.239c-.714.714-1.191 1.429-1.905 2.143-.476.238-.952.953-1.429.715-.953-.953-1.19-2.144-1.19-3.572 0-.238 0-.714.476-.953.953-.238 1.905.238 2.857 0h.953c.238.238.714.238.953.477-.001.476-.477.714-.715 1.19m-2.144 8.098c.953.952 1.905 1.667 2.62 2.381 2.62 2.144 5.715 3.096 8.811 4.049 1.667.476 3.334.714 5.239.952 1.667 0 3.096-.238 4.762-.476.477 0 .953-.476 1.668-.476 1.191-.238 2.143-.953 3.334-1.429 1.43-.476 2.619-1.428 4.049-1.905 1.666-1.19 2.857-3.096 4.285-4.287.477-1.191 1.668-2.381 2.145-3.572s1.428-2.144 1.666-3.334c.477-.714.477-1.429 1.191-2.143.953-.477 2.143-.238 3.334-.477h1.904c.238.238 0 .715 0 1.191q-.358 1.429-.713 2.858c-.477.952-.715 2.143-1.191 3.096s-.715 2.143-1.43 3.096c-.951 1.19-1.666 2.62-2.619 3.572l-1.428 1.429c-1.191.953-2.145 2.144-3.334 3.096-.715.477-1.191 1.191-2.145 1.429-1.428.953-3.096 2.144-5 2.858l-2.621.953-.713.238-6.43.714c-.953 0-1.667-.238-2.62-.238-.953-.238-2.143-.238-3.334-.476-4.286-.477-8.335-1.429-11.668-4.049a21.7 21.7 0 0 1-5.001-4.286l-2.858-3.572c-.952-.953-1.19-2.144-1.667-3.096-.714-1.905-1.19-3.572-1.429-5.478-.238-.714-.476-1.667-.476-2.381.238-.714.952-.476 1.428-.476.715 0 .953-.238 1.429-.238.953.238 2.381-.238 2.62.714.476 1.905 1.905 3.572 2.619 5.478.954 1.665 2.383 2.855 3.573 4.285m43.819-12.146c-1.906 0-3.572.238-5.24.238h-2.619c-.715.238-1.666.238-2.619.238-.715 0-1.43.238-2.381 0H99.474c-1.191-.238-2.383 0-3.811 0-1.905 0-3.81.238-5.715 0h-9.526c-1.429 0-2.619-.477-4.048-.238-2.144-.238-4.287 0-6.43-.715-.714.238-1.667 0-2.381.238l-.476-.476c-.238-1.667-1.191-3.096-.477-4.525 0-.238.238-.714.477-.714h6.667c.477-.238.953 0 1.429 0 1.429-.238 3.096 0 4.763 0 1.429-.238 2.62.476 4.287.238 1.19-.238 2.857 0 4.286 0 .715 0 1.667-.238 2.382 0 .714 0 1.667 0 2.381-.238h5.001c.238-.238.715 0 1.191 0 1.189-.238 2.381 0 3.572-.238 2.143 0 4.285 0 6.43.238.475-.238 1.189 0 1.904 0 2.857-.238 6.191-.238 9.049-.238.953-.238 2.145-.238 3.096-.238.238 0 .477 0 .715.238.238.714.238 1.429.238 2.381 0 1.19.477 2.143.238 3.333 0 .238-.238.477-.477.477-.714.239-1.188.001-1.665.001M83.756 49.703c-.476-.715-1.429-.477-1.905-.238a139 139 0 0 0-4.048.714c-.477-.238-.715 0-.953-.238.238-.477.714-.953.953-1.191.476-.476 1.429 0 1.429-.714.238-.477-.714-.714 0-.953.953-.238 1.905-.238 2.858-.238l4.286.238c.714.238 1.667.238 2.382 0 .238 0 .476-.238.238-.477-.477-.476-.953-.238-1.667-.714h-3.572c-.952.238-1.905 0-2.857-.238-.238 0-.477 0-.238-.238q1.071-.714 2.144-.714h.238c0-.477 0-.715-.238-.953 1.667-.953 3.572.238 5.001.714l.714.238c.477.476 1.191.476 1.667.714.238.714-.714 1.19-.476 2.143 0 1.429 0 3.096 1.429 4.287.952.476 1.905.953 2.857 1.191.477-.238.953 0 1.429-.238.238.238.715 0 .953.238 0 .714.238.952.476 1.429-.238.952.238 1.667.238 2.381 0 .238-.238.238-.476.238-.476 0-.476-.238-.714-.476-.238-.953.238-1.667.238-2.382 0-.238-.238-.476-.477-.714-.238 0-.477.238-.477.238-.238.476-.238 1.19 0 1.429 0 .476 0 .714-.238.953.238.477.238.953-.238 1.19-.238 0-.476.238-.714-.238-.238-.238 0-.714 0-1.191.477-.477.238-1.19.477-1.905 0-.238 0-.238-.238-.476-.238 0-.714 0-.714.476-.238.238 0 .953-.238 1.429-.238.715 0 1.667-.953 1.905h-1.19c-.238-.238-.238-.238 0-.476.476-.953 1.429-1.667 1.905-2.858 0-.238-.238-.476-.476-.952h-.241c-.476.476-.476.952-.952 1.429-.238.714-.953 1.667-1.429 2.381-.476.476-1.19.238-1.667.238v-.238c.238-.714.953-1.191 1.429-1.905.476-.476.953-.714 1.429-1.429 0 0 .238-.238.238-.714 0 0-.238-.238-.238-.477-.238 0-.715 0-.715.238-.476.238-.714.953-.952 1.429-.714.953-1.905 1.905-2.62 3.096-.953.238-1.905.238-2.858.238 0-.238-.238-.476 0-.476 1.667-1.191 3.096-2.62 4.763-3.81.476-.715 1.428-.953 1.19-1.905-.476-.477-1.19-.477-1.905-.477-1.429.715-2.857 1.667-4.525 2.144-1.428.714-2.857 1.19-4.048 1.905-1.191.476-2.144 1.19-3.334.952-.238 0-.477-.238-.238-.238 1.19-.952 2.62-1.19 3.81-1.905 1.191-.476 2.143-.953 3.096-1.429.238 0 .476-.238.714-.476 0-.238-.476-.238-.952-.238-.953.238-1.905.714-2.858.952-1.19.238-2.143.953-3.572.953 0 0-.238 0-.477-.238 0-.477.238-.715.477-.953l1.429-.714c1.905 0 3.572-.477 5.239-.953.238-.237 1.191-.237.952-.713m6.192-6.907c-.476 0-.714-.238-.953-.238-.477-.476-.953-.714-1.429-.952-.238-.238-.238-.477 0-.477 0-.238.238-.476.714-.476.714-.238.953.714 1.429.953.953.476 1.191 1.429 1.905 1.905v.238c-.476.238-.714 1.191-1.429.953-.714-.477-1.428-.953-2.143-.953-.714-.714-1.667-.953-2.62-1.191-.238 0-.238-.238-.238-.238.238-.476.714 0 .952-.238.477.476.953.476 1.667.476.476.477 1.429.715 2.143.953 0 0 .238 0 .238-.238.002-.238-.236-.238-.236-.477m2.382-1.667c0-.476-.238-.953 0-1.191l.238-.238c.238 0 .476 0 .476.238-.238.715 0 1.667.238 2.381-.238.238-.477.477-.714.477-.477.238-.714-.477-1.19-.714-.477-.476-.715-1.191-1.429-1.429v-.477c.238-.238.476-.238.714-.238l.238.238c.477.477.714 1.429 1.429 1.667.238.238.476 0 .476 0 0-.475-.238-.475-.476-.714m2.857.239c.238 0 .477-.238.477-.477v-.953l.477-.714c.238 0 .476 0 .476.238 0 .714 0 1.429-.238 1.905-.238.238 0 .952-.476.952-.477.238-.953.238-1.667.238v-.237c-.238-.952-.238-1.667-.238-2.381v-.476c0-.238.238 0 .477 0 .238 0 .476.238.476.476-.002.476-.24 1.19.236 1.429m1.667 2.619c.238 0 .714.238.953.477.477.238.953.714 1.191.953.238.238.238.476.238.476-.238.238-.953.477-.953.953.238.238.238.714.477 1.191.238 0 .477 0 .477.238 0 1.19-.238 2.143-1.191 3.096-.477.476-1.191.238-1.905.476-1.429.476-2.858 0-4.049-.953-.952-.476-1.19-1.429-1.429-2.381 0-.953.238-1.667.715-2.62a7.2 7.2 0 0 1 1.905-1.905c.952-.477 2.381-.477 3.571-.001m.714-4.286c.238 0 .238-.238.477-.238 0 0 .238 0 .238.238 0 .953-.477 1.667-.715 2.381 0 0 0 .238-.238.238-.238-.952.477-1.667.238-2.619m2.145 2.381h.238c.713-.714 1.189-2.144 2.143-1.667.238 0 .477 0 .477.238 0 .476-.238.238-.477.476-.715.953-1.906 1.429-2.619 2.381-.238 0-.477 0-.715-.238-.477-.715 0-1.667.238-2.62.238-.238.477-.953.953-.953.475 0 .475 0 .713.238v.238c-.477.477-.713.953-.951 1.429-.238.002 0 .24 0 .478m1.428 2.381h.715c.953-.477 2.381-.953 3.572-1.667 1.191-.238 2.619 0 3.572.953 0 0 .238 0 0 .238-.715 0-1.43.238-2.381.477-.238 0-.477.238-.477.477 0 .238 0 .238.238.238.713 0 1.428-.238 2.143-.476.477 0 1.191-.238 1.904.238.238.238.953.476.715.952-.477.477-1.191.477-1.666.477-2.621-.238-5.002 0-7.621.238h-1.191s-.238-.238 0-.476c.477 0 .715-.238 1.191-.477h1.191l1.904-.238.477-.476s-.238-.238-.477-.238c-.715-.238-1.191 0-1.904 0-.953.238-1.668.476-2.383.714-.477 0-.238-.714-.477-.953-.236-.477 0-.714.238-.714 1.191-1.429 2.857-2.858 4.764-1.905l.238.238c0 .476-.715.238-.953.476-1.191.477-2.143.953-3.334 1.429.002.237.002.237.002.475m3.81 4.049c1.191.238 2.143.238 3.334.238h1.904c1.43 0 3.098-.476 4.049.715.238.714.477 1.19.477 1.667 0 .238 0 .238-.238.238-.715 0-1.428-.477-2.143-.477-.953-.238-1.906-.714-3.096-.714-.953 0-1.668-.714-2.619-.714-.953-.238-1.668-.238-2.383-.477-1.189-.238-2.619-.238-3.334-1.19-.238-.238 0-.476.238-.476 2.381-.238 4.525-.238 6.906-.238h1.191c1.189 0 2.381 0 3.334.238 0 0 .477.238.238.476a10.3 10.3 0 0 1-3.811 0h-2.381c-.715.238-1.43-.238-1.906.238.002.238.002.476.24.476m-1.904 2.381c.713.477 1.428.238 2.143.715.953.238 1.904.476 2.857.952h.477c.477.477.953.238 1.428.477.715.238 1.668.476 2.383.952l2.857.715c.715.476 1.191.952 1.666 1.429.238 0 .238.477.238.714-.238.238-.713.238-1.189.238-.238 0-.477-.238-.715-.238h-.953c-.715-.238-.951-.953-1.428-1.191-.238 0-.715-.238-.953-.476-.715-.238-1.191-.714-1.668-.953-.713-.238-1.428-.476-1.904-.714-.477-.714-1.191-.714-1.904-1.191-.715-.238-1.668-.476-2.383-.714-.477-.238-1.189-.477-1.666-.715-.238 0-.477 0-.477.238 0 .714.715.714 1.191.953.475 0 .951.476 1.428.476.953.238 1.668.477 2.381.953.477.238.953.714 1.43.953.953.714 2.381.476 3.096 1.429.477.477 1.191.715 1.668 1.191 0 .238-.238.238-.238.238-.953-.238-1.668-.238-2.383-.238-.477 0-.951-.238-1.428-.238-1.191-.714-2.381-1.667-3.572-2.62-1.191-.238-1.906-.953-2.857-1.667-.715-.476-1.43-1.19-2.383-1.429 0-.238-.236-.238-.236-.477.236-.476.713-.952.713-1.429.238-.477.477 0 .715 0 1.191.238 2.381.477 3.334.715 1.43.476 3.096.476 4.525.952 1.189.238 2.143.715 3.096.953s1.904.238 2.619.476c.477.238.715.953.715 1.429 0 0-.238.238-.477.238-1.668-.238-2.857-1.19-4.525-1.667-1.189-.238-2.381-.714-3.572-1.19-.951-.238-2.143-.238-3.096-.714-.238-.238-.477 0-.715 0-.238-.001-.238.237-.238.475m-4.764 1.667.238-.238c.477 0 .477.477.715.477.715.714 1.428 1.19 1.904 1.905.715.476.953 1.19 1.43 1.667 0 .238.238.238 0 .476-.238 0-.477.238-.715.238s-.715 0-.715-.238c-1.189-1.43-1.904-2.858-2.857-4.287m1.192 4.049c0 .238-.238.476-.477.476-.238-.238-.715-.238-.953-.476-.238-.953-.477-1.905-.477-2.858-.238-.238-.238-.477-.238-.953.238-.238.477.238.477.238.476 1.191 1.668 2.144 1.668 3.573m.238-4.287s-.238-.238-.238-.476.238-.238.238-.238c.475 0 .713.476.951.714 1.191.238 1.906 1.429 3.096 1.905.953.714 1.906.953 2.859 1.905.475.238.951.714 1.428.953h-.477c-.477 0-1.189 0-1.904-.238-.953-.238-1.668-.714-2.383-1.429-1.189-.953-2.142-2.144-3.57-3.096M82.09 56.371c-.953.476-2.382.714-3.572.238-.238 0 0-.238 0-.477 1.429-.953 3.096-1.429 4.763-2.144.953-.238 1.667-.952 2.62-1.19s1.667-.953 2.619-1.19c.239-.238.477-.477.715-.238-.238.714-.953 1.19-1.667 1.667-1.668 1.428-3.812 2.143-5.478 3.334m40.722.476h-2.145c-.951 0-1.666.238-2.381 0h-.238c0-1.191 0-2.143-.715-3.096-.238-.953-.477-1.905-1.189-2.62-.238-.953-.953-1.905-1.43-2.62l-2.143-2.858c-.953-.714-1.43-1.667-2.621-2.381-.951-.715-1.904-1.191-2.857-1.905-.951-.477-2.143-.714-3.096-1.191-.715-.476-1.666-.476-2.619-.953a136 136 0 0 0-4.049-.714h-4.048c-1.191 0-2.62.476-3.81.714l-1.667.238c-1.905.476-3.572 1.667-5.239 2.62-.953.714-1.905 1.667-2.858 2.381-1.19.953-2.381 2.143-3.096 3.334-.476.477-.953.952-1.191 1.429-.714.715-.952 1.667-1.429 2.382-.714 1.429-.953 3.333-1.667 5.001-.238.238-.476 0-.714 0-.953.238-1.667.238-2.62 0-.714 0-1.429 0-2.143-.238-.238-.238-.477-.477-.238-.953-.238-2.143.714-3.81 1.191-5.715.238-.953.714-1.905 1.19-2.858.715-1.667 1.667-3.334 3.096-4.525.715-.952 1.191-1.905 1.905-2.381 1.19-.953 2.62-2.143 4.049-2.62l2.143-1.429c1.429-.714 2.857-1.429 4.287-1.905.714-.477 1.429-.714 2.143-1.191 2.381-.952 5.477-1.19 8.097-1.667.714.238 1.191-.238 1.905 0 2.144-.238 4.048.238 6.192.715l2.143.714c1.191.715 2.381 1.191 3.334 1.667.953.477 1.666.953 2.619 1.429 1.668.715 2.857 2.62 4.287 3.572 1.666 1.191 2.619 2.858 4.049 4.287v.238l.951 1.429c.477.714.953 1.667 1.191 2.62.953 1.667 1.191 3.572 2.143 5.239 0 .952.715 1.905.715 2.857.001.716-.952.478-1.427.954M93.521 28.27c.953-.953 1.429-2.382 1.429-4.049.238-1.19-.238-2.143-.714-3.096v-.238l.238.238c.714.477 1.429.953 1.905 1.667.238.238.476.238.476 0 .714-.714 1.191-1.905 2.382-2.143 0 0 .238-.238.238 0s-.238.238-.477.238c-.953.952-1.668 2.143-1.906 3.333 0 1.429.477 2.858.953 4.049h-.238c-.238-.238-.477-.715-.953-1.191-.238-.238-.476-.714-.476-1.191 0 0-.238-.238-.238 0-.715 1.191-1.191 2.858-2.858 3.334h-.477c.001-.475.477-.475.716-.951m-1.667-2.858c.238-.238.714-.714 1.19-.476h.238c0 .476-.238.714-.477.952-.238.238-.476.238-.952.238zm-5.716 3.334c.238-.714.715-.714 1.191-.953.238 0 .477 0 .714.238 0 .714-1.429.714-.714 1.429.714 0 1.429-.477 1.667-.953.714-.953 1.667-1.905 1.19-3.096.238 0 .715-.238.953 0 0 .476-.238 1.191.238 1.429.476 0 .714-.476.714 0 .238.238-.238.477-.238.477-.714.238-1.429-.477-1.667.238-.238.953-.714 2.144-1.667 2.62-.714 0-1.429.238-1.905 0-.476-.476-.476-.953-.476-1.429m-24.29 29.53c0-1.667.476-3.334.714-5.001.238-.714.477-1.667.477-2.62l.952-2.381c.953-1.429 1.429-3.334 2.858-4.763.714-1.191 1.667-2.381 2.62-3.572.952-1.429 2.619-2.381 3.572-3.81.477-.238 1.191-.953 1.667-1.19l2.858-2.382c1.19-.714 2.143-1.19 3.334-1.905.714-.476 1.667-.714 2.619-.952.238-.238.715-.238.953 0 .714.952 1.667 1.905 3.096 1.667.714-.238 1.429-.477 2.143-1.191.238 0 .238-.238.714-.476.238 0 .477.476.715.476 1.19 0 2.143 0 3.096-.476.714-.238 1.19-.715 1.667-1.191.238 0 .476.476.714.714.714.477 1.667.477 2.62.715-.238.238-.477 0-.715 0-2.381-.238-5.001.238-7.144.714-2.144.477-4.287.715-6.192 1.667-1.429.476-2.858 1.19-4.287 1.905-1.905.715-3.811 2.144-5.716 2.858-2.857 2.143-4.763 5.001-6.668 7.859-1.428 1.667-1.667 3.81-2.381 5.715-.238 1.429-.715 2.858-.953 4.525l-.714 3.572c-.238.238-.477 0-.715-.238s-.476-.476-.952-.238c-.238 0-.477 0-.715.238-.237-.001-.237-.001-.237-.239m2.619 2.381c0 .238 0 .477-.238.477h-.714c-.238.238-.476.476-.953.476-.238 0-.238-.238-.477-.476v-.477l.477-.476c.238 0 .477.238.714.476.476 0 .953-.238 1.191 0m25.719 30.482c-.476 0-1.19-.238-1.428.238-.239.476-.239.714-.239 1.19.239 0 .239.238.477 0s.714 0 .953 0v.476c-.953.477-1.905 0-2.858 0-1.19-.476-2.381-.476-3.572-.953-.714-.238-1.428-.714-2.143-.952-1.667-.715-3.333-1.429-5-2.62-2.144-1.428-4.525-3.333-5.954-5.477-1.905-2.62-3.572-5.001-4.763-7.859-.238-.953-.952-1.667-1.19-2.62-1.191-2.62-1.667-5.477-2.382-8.097 0-.238-.238-.715 0-.953.477-.238.715.476 1.191 0s.953-.714 1.429-.238c.476.714-.477 1.667.476 2.143.238.476.476.714.476 1.19-.238.477 0 .953.238 1.667l.714 2.858c.477 1.429 1.191 2.62 1.429 4.048.714 1.905 2.381 3.81 3.572 5.477s2.62 2.858 4.048 4.287c1.905 1.429 4.048 3.096 6.43 3.811 1.905.714 3.572.953 5.477 1.429 2.381.714 5.001.714 7.382.953h.238c-.952.238-.952 1.667-1.905 1.19-1.191-.236-2.143-.95-3.096-1.188m8.097 1.905c-1.191.714-1.905 1.905-1.905 3.097.238 1.666.952 3.334 1.905 4.762 0 .238.238.238.238.477-.477.238-.715-.238-.953-.477-.952-.713-1.667-2.619-3.095-1.904l-.715.715c-.238.238-.476.477-.714.238.238-.953.714-1.668.714-2.621.238-.477.238-1.428 0-1.904-.714-.477-1.19-.715-1.905-1.429l.476-.476c.714 0 1.905.476 2.381-.238.238-.239.476-.477.714-.477.477.714 1.429.477 1.905.238.477 0 .477 0 .953-.238zm29.768-27.862c-.238 1.905-.953 3.572-1.43 5.239-.951 2.144-1.666 4.287-2.857 6.192-1.189 2.143-2.619 4.048-3.809 5.954-.953 1.19-2.145 2.144-3.336 3.096-1.189 1.667-3.096 2.62-4.762 3.572-2.143 1.429-4.287 2.381-6.668 3.334-1.191.715-2.857.715-4.287 1.19-.238.238-.715.238-.951-.238v-.477c.475-.238 1.189-.238 1.428-.953 0-.476-.238-.714-.715-.952-.713-.238-1.189.238-1.904.238-.715.238-1.43.714-2.144.476-.238-.238-.714-.238-.714-.476v-.238c.476.238 1.19 0 1.905 0 1.191 0 2.381-.477 3.572-.477 2.143 0 3.811-.476 5.477-1.429 1.906-.953 3.572-1.667 5.002-2.858l2.857-2.143c1.668-2.144 4.287-3.81 5.715-6.191 1.668-2.144 2.621-4.287 3.572-6.668.715-1.667.953-3.334 1.668-5.239l.715-.714c0-.476 0-.953-.238-1.191 0-.238 0-.477.238-.714.475-.238.951.476 1.428.714.238.238.238.715.238.953m0-2.858c-.238.238-.477.476-.953.238q-.358 0-.713-.714v-.476c.475-.477 1.189-.477 1.666-.238l.238.238c.238.237 0 .713-.238.952m-.239-2.858c-.238.238-.715 0-.953.238 0-.715-.238-1.667-.475-2.382-.238-.476 0-1.19-.477-1.667-.477-2.143-.953-4.286-1.906-6.191-.238-.953-.715-1.667-1.189-2.381-.477-1.429-.953-2.381-1.668-3.572-.477-.476-.715-1.191-1.189-1.667-.715-.714-1.191-1.667-2.145-2.62-.715-.238-1.191-1.19-1.904-1.667-1.43-.714-2.619-2.143-4.049-2.857a44 44 0 0 1-4.764-2.381c-.951-.476-1.904-.714-2.857-1.191 0 0-.238 0 0-.238s.715-.238 1.191-.476c.238-.476.715-.714 1.191-1.191a28.6 28.6 0 0 1 3.809 1.905c1.668.715 3.334 1.429 4.764 2.62 1.666.953 2.619 2.381 4.049 3.572 1.666 1.191 2.857 3.096 4.047 5.001l1.43 2.858c.715 1.429 1.191 2.858 1.904 4.287a25 25 0 0 1 1.43 5.715c.238 1.429.477 2.858.477 4.287-.239-.002-.477-.24-.716-.002" fill="#a5333a"/><path d="M110.666 93.044c0 .239-.477.714-.238.953.238.714.238 1.429.715 1.905.238.714.477 1.428.953 1.905s.953.238 1.428.477c.238 0 .238.238.238.477-.238.477-.713.477-1.189.477-.953.477-2.145.953-3.096 1.428-.238.238-.238.715-.715.477-.477-.477-.477-1.189-.953-1.666 0-.238 0-.477.238-.477s.238.238.477.238c.477 0 .715.238.953.238.238-.238.475-.477.951-.715l-.238-1.191c-.238 0-.475-.238-.713 0s0 .715-.477.715c0 .238-.238 0-.238-.238-.238-.477-.477-.953-.477-1.667.238-.476.715.238 1.191 0v-.476c-.477-.476-.477-1.667-1.43-1.191-.477.238-.953.238-1.191.715 0 .238 0 .715-.475.952 0 0-.238 0-.238-.237-.238-.239 0-.477 0-.954 0-.238-.238-.714.238-.714.951-.477 2.143-.715 3.096-1.19.475-.241.713-.479 1.19-.241m-25.719 2.382c.714 1.428 0 3.096-.476 4.764 0 .236 0 .951.476 1.189 0 .238-.238.477-.238.477-.477 0-.953-.238-1.429-.477-.238-.238-.953 0-1.19-.238 0-.477.476-.477.714-.715l.238-.236c.476-1.191.953-2.383.953-3.573 0-.476-.238-.953-.714-1.19-.476 0-1.19 0-1.667.715-.476.713-1.191 1.666-1.191 2.619 0 .715.238.953.477 1.43 0 0 0 .236-.238.236-.476 0-1.19-.475-1.667-.951-.476 0-.952.238-1.19-.477l.238-.238c.714-.238.476-1.191.952-1.668.477-1.19 1.429-2.381 2.62-2.857 1.189-.239 2.618-.239 3.332 1.19m-8.096-3.811c-.714-.476-1.667-1.191-2.381-1.429-.953-.238-1.905 0-2.62.714-.476.714-.238 1.667 0 2.382.238.476-.476.476-.714.714-.477.714-.238 1.667 0 2.381.238.476.952.476 1.429.952.714.477 1.429.715 2.143 1.191.238 0 .476 0 .476-.238s-.476-.715-.714-.953c-.238-.714.476-.952.714-1.667.477-.714 1.191-1.905 2.144-2.381.238-.239.953.238 1.191-.239-.477-.712-1.192-.951-1.668-1.427m-3.573 4.763c-.476.238-.714-.476-.953-.476v-.715c.238-.238.477-.238.714-.238l.714.714c.001.239-.236.478-.475.715m1.429-3.095c-.238.238-.238.476-.476.476s-.714-.238-.714-.714v-1.19c.476-.238 1.19-.238 1.667.238.237.475-.477.713-.477 1.19" fill="#a5333a"/></g></svg>